<svg id="Layer_1" enable-background="new 0 0 24 24" viewBox="0 0 24 24" xmlns="http://www.w3.org/2000/svg" xmlns:xlink="http://www.w3.org/1999/xlink"><linearGradient id="SVGID_1_" gradientUnits="userSpaceOnUse" x1="12" x2="12" y1="0" y2="24"><stop offset="0" stop-color="#f7b733"/><stop offset="1" stop-color="#fc4a1a"/></linearGradient><circle cx="12" cy="12" fill="url(#SVGID_1_)" r="12"/><path d="m19.3 4.2c-.6-.1-1.2-.2-1.8-.2-2 0-3.9.6-5.5 1.6-1.7-1-3.6-1.6-5.5-1.6-.6 0-1.2.1-1.8.2-.3.1-.6.4-.6.8v9.5c0 .4.3.8.8.8h.1c2.3-.4 4.6.1 6.5 1.5l.1.1h.1c.2.1.4.1.6 0h.1l.1-.1c1.9-1.4 4.2-2 6.5-1.6.4.1.8-.2.9-.6v-.1-9.6c0-.4-.3-.7-.6-.7zm-8.1 10.5c-1.5-.8-3.1-1.2-4.7-1.2-.3 0-.5 0-.8 0v-7.9h.8c1.7 0 3.3.5 4.7 1.4zm7.1-1.2c-.3 0-.5 0-.8 0-1.7 0-3.3.4-4.7 1.2v-7.7c1.4-.9 3.1-1.4 4.7-1.4h.8zm1 3.3c-.6-.1-1.1-.1-1.7-.2-2 0-3.9.6-5.5 1.6-1.7-1.1-3.6-1.6-5.5-1.6-.6 0-1.1.1-1.7.2-.4.1-.7.5-.7.9.1.4.5.7.9.6 2.3-.4 4.6.1 6.5 1.5.3.2.6.2.9 0 1.9-1.4 4.2-1.9 6.5-1.5.4.1.8-.2.9-.6s-.2-.8-.6-.9z" fill="#fff"/></svg>